<?xml version="1.0" encoding="UTF-8" standalone="no"?>
<!-- Created with Inkscape (http://www.inkscape.org/) -->

<svg
   width="550"
   height="120"
   viewBox="0 0 550 120"
   version="1.1"
   id="svg5"
   inkscape:export-filename="/home/michael/logo-full.png"
   inkscape:export-xdpi="600"
   inkscape:export-ydpi="600"
   inkscape:version="1.2.2 (732a01da63, 2022-12-09, custom)"
   sodipodi:docname="logo-full-white.svg"
   xmlns:inkscape="http://www.inkscape.org/namespaces/inkscape"
   xmlns:sodipodi="http://sodipodi.sourceforge.net/DTD/sodipodi-0.dtd"
   xmlns="http://www.w3.org/2000/svg"
   xmlns:svg="http://www.w3.org/2000/svg">
  <sodipodi:namedview
     id="namedview7"
     pagecolor="#ffffff"
     bordercolor="#666666"
     borderopacity="1.0"
     inkscape:pageshadow="2"
     inkscape:pageopacity="0.0"
     inkscape:pagecheckerboard="0"
     inkscape:document-units="px"
     showgrid="false"
     borderlayer="true"
     inkscape:snap-global="false"
     inkscape:zoom="5.0725424"
     inkscape:cx="71.758888"
     inkscape:cy="35.485164"
     inkscape:window-width="3766"
     inkscape:window-height="2123"
     inkscape:window-x="74"
     inkscape:window-y="490"
     inkscape:window-maximized="1"
     inkscape:current-layer="layer3"
     inkscape:showpageshadow="2"
     inkscape:deskcolor="#d1d1d1">
    <inkscape:grid
       type="xygrid"
       id="grid9187" />
  </sodipodi:namedview>
  <defs
     id="defs2">
    <marker
       style="overflow:visible"
       id="Arrow2Send"
       refX="0"
       refY="0"
       orient="auto"
       inkscape:stockid="Arrow2Send"
       inkscape:isstock="true">
      <path
         transform="matrix(-0.3,0,0,-0.3,0.69,0)"
         d="M 8.7185878,4.0337352 -2.2072895,0.01601326 8.7185884,-4.0017078 c -1.7454984,2.3720609 -1.7354408,5.6174519 -6e-7,8.035443 z"
         style="fill:#ffffff;fill-rule:evenodd;stroke:context-stroke;stroke-width:0.625;stroke-linejoin:round"
         id="path8556" />
    </marker>
    <marker
       style="overflow:visible"
       id="marker9514"
       refX="0"
       refY="0"
       orient="auto"
       inkscape:stockid="Arrow1Send"
       inkscape:isstock="true">
      <path
         transform="matrix(-0.2,0,0,-0.2,-1.2,0)"
         style="fill:#ffffff;fill-rule:evenodd;stroke:context-stroke;stroke-width:1pt"
         d="M 0,0 5,-5 -12.5,0 5,5 Z"
         id="path9512" />
    </marker>
    <marker
       style="overflow:visible"
       id="marker9504"
       refX="0"
       refY="0"
       orient="auto"
       inkscape:stockid="Arrow1Send"
       inkscape:isstock="true">
      <path
         transform="matrix(-0.2,0,0,-0.2,-1.2,0)"
         style="fill:#ffffff;fill-rule:evenodd;stroke:context-stroke;stroke-width:1pt"
         d="M 0,0 5,-5 -12.5,0 5,5 Z"
         id="path9502" />
    </marker>
    <marker
       style="overflow:visible"
       id="TriangleOutS"
       refX="0"
       refY="0"
       orient="auto"
       inkscape:stockid="TriangleOutS"
       inkscape:isstock="true">
      <path
         transform="scale(0.2)"
         style="fill:#ffffff;fill-rule:evenodd;stroke:context-stroke;stroke-width:1pt"
         d="M 5.77,0 -2.88,5 V -5 Z"
         id="path8671" />
    </marker>
    <marker
       style="overflow:visible"
       id="Tail"
       refX="0"
       refY="0"
       orient="auto"
       inkscape:stockid="Tail"
       inkscape:isstock="true">
      <g
         transform="scale(-1.2)"
         id="g8571">
        <path
           style="fill:none;fill-rule:evenodd;stroke:context-stroke;stroke-width:0.8;stroke-linecap:round"
           d="M -3.8048674,-3.9585227 0.54352094,0"
           id="path8559" />
        <path
           style="fill:none;fill-rule:evenodd;stroke:context-stroke;stroke-width:0.8;stroke-linecap:round"
           d="M -1.2866832,-3.9585227 3.0617053,0"
           id="path8561" />
        <path
           style="fill:none;fill-rule:evenodd;stroke:context-stroke;stroke-width:0.8;stroke-linecap:round"
           d="M 1.3053582,-3.9585227 5.6537466,0"
           id="path8563" />
        <path
           style="fill:none;fill-rule:evenodd;stroke:context-stroke;stroke-width:0.8;stroke-linecap:round"
           d="M -3.8048674,4.1775838 0.54352094,0.21974226"
           id="path8565" />
        <path
           style="fill:none;fill-rule:evenodd;stroke:context-stroke;stroke-width:0.8;stroke-linecap:round"
           d="M -1.2866832,4.1775838 3.0617053,0.21974226"
           id="path8567" />
        <path
           style="fill:none;fill-rule:evenodd;stroke:context-stroke;stroke-width:0.8;stroke-linecap:round"
           d="M 1.3053582,4.1775838 5.6537466,0.21974226"
           id="path8569" />
      </g>
    </marker>
    <marker
       style="overflow:visible"
       id="Arrow1Send"
       refX="0"
       refY="0"
       orient="auto"
       inkscape:stockid="Arrow1Send"
       inkscape:isstock="true">
      <path
         transform="matrix(-0.2,0,0,-0.2,-1.2,0)"
         style="fill:#ffffff;fill-rule:evenodd;stroke:context-stroke;stroke-width:1pt"
         d="M 0,0 5,-5 -12.5,0 5,5 Z"
         id="path8538" />
    </marker>
    <marker
       style="overflow:visible"
       id="Arrow2Mend"
       refX="0"
       refY="0"
       orient="auto"
       inkscape:stockid="Arrow2Mend"
       inkscape:isstock="true">
      <path
         transform="scale(-0.6)"
         d="M 8.7185878,4.0337352 -2.2072895,0.01601326 8.7185884,-4.0017078 c -1.7454984,2.3720609 -1.7354408,5.6174519 -6e-7,8.035443 z"
         style="fill:#ffffff;fill-rule:evenodd;stroke:context-stroke;stroke-width:0.625;stroke-linejoin:round"
         id="path8550" />
    </marker>
    <marker
       style="overflow:visible"
       id="Arrow2Lend"
       refX="0"
       refY="0"
       orient="auto"
       inkscape:stockid="Arrow2Lend"
       inkscape:isstock="true">
      <path
         transform="matrix(-1.1,0,0,-1.1,-1.1,0)"
         d="M 8.7185878,4.0337352 -2.2072895,0.01601326 8.7185884,-4.0017078 c -1.7454984,2.3720609 -1.7354408,5.6174519 -6e-7,8.035443 z"
         style="fill:#ffffff;fill-rule:evenodd;stroke:context-stroke;stroke-width:0.625;stroke-linejoin:round"
         id="path8544" />
    </marker>
    <marker
       style="overflow:visible"
       id="Arrow1Lend"
       refX="0"
       refY="0"
       orient="auto"
       inkscape:stockid="Arrow1Lend"
       inkscape:isstock="true">
      <path
         transform="matrix(-0.8,0,0,-0.8,-10,0)"
         style="fill:#ffffff;fill-rule:evenodd;stroke:context-stroke;stroke-width:1pt"
         d="M 0,0 5,-5 -12.5,0 5,5 Z"
         id="path8526" />
    </marker>
    <marker
       style="overflow:visible"
       id="marker9262"
       refX="0"
       refY="0"
       orient="auto"
       inkscape:stockid="Arrow1Lstart"
       inkscape:isstock="true">
      <path
         transform="matrix(0.8,0,0,0.8,10,0)"
         style="fill:#ffffff;fill-rule:evenodd;stroke:context-stroke;stroke-width:1pt"
         d="M 0,0 5,-5 -12.5,0 5,5 Z"
         id="path9260" />
    </marker>
    <marker
       style="overflow:visible"
       id="Arrow1Lstart"
       refX="0"
       refY="0"
       orient="auto"
       inkscape:stockid="Arrow1Lstart"
       inkscape:isstock="true">
      <path
         transform="matrix(0.8,0,0,0.8,10,0)"
         style="fill:#ffffff;fill-rule:evenodd;stroke:context-stroke;stroke-width:1pt"
         d="M 0,0 5,-5 -12.5,0 5,5 Z"
         id="path8523" />
    </marker>
  </defs>
  <g
     inkscape:label="Layer 1"
     inkscape:groupmode="layer"
     id="layer1"
     style="display:inline">
    <path
       id="path888"
       style="fill:#ffffff"
       d="M 61.904297,0.50390625 V 35.142578 C 92.732945,34.837059 119.19727,27.193221 119.19727,17.792969 119.19727,8.4187783 92.616185,0.85386735 61.904297,0.50390625 Z M 119.19727,33.896484 C 105.36663,42.266694 79.624167,44.933577 61.904297,45.105469 V 63.40625 C 92.732946,63.100731 119.19727,55.456892 119.19727,46.056641 Z m 0,28.263672 C 105.36663,70.530368 79.624167,73.195418 61.904297,73.367188 V 91.638672 C 92.732946,91.333228 119.19727,83.691265 119.19727,74.291016 Z m 0,28.232422 C 105.39962,98.739514 79.681188,101.4286 61.904297,101.60156 v 18.39063 c 30.828649,-0.30552 57.292973,-7.94935 57.292973,-17.34961 z" />
  </g>
  <g
     inkscape:groupmode="layer"
     id="layer2"
     inkscape:label="Layer 2"
     style="display:inline" />
  <g
     inkscape:groupmode="layer"
     id="layer3"
     inkscape:label="Layer 3"
     style="display:inline">
    <path
       d="M 52.306883,111.74919 C 48.852872,93.66289 28.717939,84.616594 24.002238,78.043478 21.577912,74.664101 22.185295,71.073901 23.699846,69.14193 c 1.626646,-2.070422 4.726133,-2.479471 7.038363,-0.657626 2.022881,1.588999 5.95915,5.997295 6.842853,7.624059 0.883706,1.62361 0.87328,2.96718 1.347719,4.059029 0.539606,1.227151 1.759591,1.881631 3.526998,1.24288 1.637075,-0.588399 2.541632,-1.368741 2.541632,-1.368741 0,0 -1.71006,-0.07866 -2.387828,-1.239736 0,0 -2.372189,-6.27734 -3.222005,-8.844913 2.718894,0.871591 4.444595,1.878482 5.651543,2.797273 0.148587,1.397061 -0.344096,3.804162 -0.364951,3.911143 0.05475,-0.03776 0.933235,-0.663921 2.239241,-2.234039 0.06517,0.06608 0.130342,0.129006 0.192903,0.188792 0.461402,0.443657 -0.388411,3.952047 -0.388411,3.952047 0,0 1.595359,-1.293225 2.815343,-3.042699 1.055753,-1.507193 1.944674,-3.420284 1.944674,-3.420284 0,0 -3.454013,-1.762064 -5.046767,-4.814204 -1.597971,-3.048991 -0.205939,-6.35915 -0.205939,-6.35915 0,0 -2.66415,-1.032064 -4.895569,-4.914891 -2.346123,-4.084204 -1.438955,-9.102931 -1.438955,-9.102931 -1.90818,0.925082 -3.581748,5.506441 -3.581748,5.506441 0,0 -4.819971,-3.105631 -11.081509,-2.139643 -5.648936,-0.01888 -10.899035,-4.153429 -13.07832,-10.682493 0,0 -1.686601,8.933018 4.702668,14.555875 -0.346702,0.283188 -0.693409,0.58211 -1.040112,0.903058 -3.117735,2.142793 -7.0774681,2.016932 -10.1274269,-0.56323 0,0 0.1616294,1.340426 0.7559818,2.95145 0.5943427,1.607883 1.6188147,3.489509 3.347127,4.571919 0.1850844,0.116421 0.3675591,0.210817 0.5474291,0.292627 -0.3597377,0.692241 -0.6934103,1.409652 -0.9931939,2.145938 -1.7022413,3.448604 -5.1197556,5.191788 -8.39389717,4.159724 0,0 1.71788077,3.785282 4.79912547,4.247822 0.7116473,0.106985 1.3320682,-0.02202 1.8638582,-0.276894 -0.02604,1.566974 0.039061,3.033262 0.1850844,4.424029 -0.07821,3.045848 -1.7804438,5.748722 -4.2621186,6.604584 h -0.00281 c 0,0 2.3930432,1.718005 4.6088233,0.560079 0.4327328,-0.226547 0.7664034,-0.534909 1.024475,-0.877882 1.8195473,5.305059 5.1197593,9.58435 9.3271353,14.46463 1.128745,1.312106 2.395648,2.715447 3.680803,4.178607 12.642986,0.88102 22.215157,7.71216 30.322309,18.209 0.255464,-2.27809 0.443156,-5.10368 -0.18769,-8.40439 z m -13.323361,-50.652957 3.576532,4.295026 -5.708896,-2.485766 z m 8.626687,19.882023 c 0,0 1.748121,2.15097 4.172185,2.578585 -0.163707,1.169883 -0.411091,1.753251 -0.411091,1.753251 0,0 4.160452,4.043299 9.256226,1.438598 -0.235133,3.23338 -3.556458,4.660019 -3.556458,4.660019 0,0 3.567931,5.336842 10.610724,2.062238 -3.820789,6.002023 -9.524991,4.329323 -12.994382,2.184957 -3.118256,-1.927252 -7.13325,-7.619967 -7.077204,-14.677648 z"
       id="path2-7"
       style="fill:#ffffff" />
    <g
       id="g4"
       transform="matrix(1.4537283,0,0,0.536263,2.6781987,-2.4177506)"
       style="display:inline;fill:#ffffff">
      <path
         d="m 9.49,73.833 c -1.493,0 -2.943,-0.24 -4.309,-0.713 L 2.068,72.043 4.46,69.778 C 7.625,66.781 8.424,63.323 8.476,60.732 3.004,54.666 0,47.097 0,39.334 0,20.311 17.645,4.834 39.333,4.834 c 21.688,0 39.334,15.477 39.334,34.5 0,19.022 -17.646,34.498 -39.334,34.498 -6.458,0 -12.827,-1.399 -18.505,-4.057 -2.139,1.514 -6.462,4.058 -11.338,4.058 z m 10.871,-8.755 1.148,0.581 c 5.397,2.729 11.561,4.173 17.824,4.173 19.483,0 35.334,-13.682 35.334,-30.498 0,-16.818 -15.851,-30.5 -35.334,-30.5 C 19.85,8.834 4,22.516 4,39.334 c 0,6.99 2.814,13.823 7.925,19.238 l 0.52,0.552 0.024,0.757 c 0.087,2.72 -0.401,6.407 -2.818,9.951 4.63,-0.074 8.89,-3.298 9.705,-3.95 z"
         id="path2"
         style="fill:#ffffff" />
    </g>
    <path
       style="display:inline;opacity:1;fill:#ffffff;fill-opacity:1;fill-rule:evenodd;stroke:#ffffff;stroke-width:2.6205;stroke-linecap:butt;stroke-linejoin:miter;stroke-miterlimit:3.4;stroke-dasharray:none;stroke-dashoffset:0;paint-order:fill markers stroke"
       d="M 54.768506,34.840977 C 47.887202,34.636782 40.732173,33.920187 34.706727,32.831735 l -2.417062,-0.436623 -1.863092,0.523861 c -3.754297,1.055628 -9.158011,1.933713 -11.900017,1.933713 H 17.21421 l 0.695679,-0.460407 c 1.638148,-1.08414 2.567469,-2.253005 2.872126,-3.612447 0.28938,-1.29127 0.148276,-1.552883 -1.093654,-2.027703 C 14.648335,26.825211 10.481954,23.789224 9.219686,21.123746 8.7294229,20.088478 8.6482666,19.728537 8.6519111,18.605569 8.6554145,17.526045 8.7439486,17.114833 9.1546785,16.270383 12.25349,9.8993025 26.964241,4.6690791 46.557598,2.9722435 49.380022,2.7278141 56.764901,2.3617043 58.917635,2.359487 l 1.004526,-0.00103 v 16.334462 16.334467 l -0.393075,-0.0284 c -0.216192,-0.01562 -2.358453,-0.08672 -4.76058,-0.158004 z"
       id="path14296" />
    <path
       style="opacity:1;fill:#ffffff;fill-opacity:1;fill-rule:evenodd;stroke:#ffffff;stroke-width:1.47855;stroke-linecap:butt;stroke-linejoin:miter;stroke-miterlimit:3.4;stroke-dasharray:none;stroke-dashoffset:0;paint-order:fill markers stroke"
       d="M 61.310477,18.678996 V 2.4149625 h 0.29571 0.295709 V 18.678996 34.943029 h -0.295709 -0.29571 z"
       id="path24970" />
    <text
       xml:space="preserve"
       style="font-style:normal;font-weight:normal;font-size:93.3333px;line-height:1.25;font-family:sans-serif;letter-spacing:0px;word-spacing:0px;fill:#ffffff;fill-opacity:1;stroke:none"
       x="140.52988"
       y="93.429512"
       id="text26779"><tspan
         sodipodi:role="line"
         id="tspan26777"
         x="140.52988"
         y="93.429512">LingoDB</tspan></text>
    <path
       style="fill:#ffffff"
       d="m 61.901898,110.87763 v -8.58909 l 8.082731,-0.52099 c 18.7749,-1.21019 36.321061,-4.577896 44.560321,-8.552645 l 4.13321,-1.993926 v 6.525214 c 0,5.523887 -0.26554,6.862797 -1.73043,8.725097 -2.23569,2.84223 -11.37504,7.04528 -19.704275,9.06172 -7.496518,1.81484 -24.088094,3.93371 -30.80251,3.93371 h -4.539047 z"
       id="path492" />
    <path
       style="fill:#ffffff"
       d="m 61.901898,110.88634 v -8.58037 l 7.688452,-0.53635 c 12.134753,-0.84652 21.279126,-2.010619 29.37383,-3.739342 7.14442,-1.525778 16.62089,-4.755805 18.72828,-6.38348 0.77094,-0.595444 0.9857,0.696942 0.9857,5.931644 0,8.368278 -1.10288,10.003278 -9.30338,13.792148 -9.382398,4.33493 -29.460684,8.09613 -43.219358,8.09613 h -4.253524 z"
       id="path494" />
    <path
       style="fill:#ffffff"
       d="m 61.901898,110.87763 v -8.58909 l 8.082731,-0.5443 c 19.426478,-1.30819 34.581951,-4.196988 43.765041,-8.342095 l 4.92849,-2.224648 v 6.546955 c 0,5.546268 -0.26449,6.883198 -1.73043,8.746838 -4.94491,6.28643 -30.904123,12.99543 -50.283397,12.99543 h -4.762435 z"
       id="path496" />
    <path
       style="fill:#ffffff;stroke-width:0.788559"
       d="m 61.901898,82.571771 v -8.506818 l 12.814087,-0.958187 c 17.583942,-1.314858 30.780565,-4.168277 42.582195,-9.207269 1.24862,-0.533127 1.37998,0.01357 1.37998,5.743123 0,5.563721 -0.23371,6.610087 -1.92545,8.6206 -5.30732,6.307399 -30.743473,12.815368 -50.088377,12.815368 h -4.762435 z"
       id="path567" />
    <path
       style="fill:#ffffff;stroke-width:0.0246425"
       d="m 61.914219,91.36414 v -0.27323 l 2.864688,-2.96e-4 c 3.865006,-3.94e-4 5.555363,-0.04378 8.175141,-0.209781 14.189448,-0.899133 30.399312,-4.69518 38.935112,-9.117876 1.84219,-0.954501 3.17677,-1.842107 4.22921,-2.812774 0.43509,-0.401287 1.00202,-1.074883 1.3756,-1.634417 0.99627,-1.49219 1.19636,-2.807673 1.19568,-7.86095 -5.9e-4,-4.357657 -0.12598,-5.503058 -0.62299,-5.690844 -0.0977,-0.03689 -0.32837,-0.03211 -0.46605,0.0097 -0.0641,0.01944 -0.50763,0.19816 -0.98569,0.39715 -4.23397,1.762352 -8.36854,3.164109 -12.93171,4.38428 -7.738588,2.069266 -16.344208,3.476771 -26.589226,4.348842 -1.243564,0.105854 -1.764344,0.145595 -8.403084,0.641247 -3.273137,0.244374 -6.136901,0.458425 -6.36392,0.475669 l -0.412761,0.03135 v -0.33472 -0.33472 l 1.65489,-0.03064 c 14.973569,-0.277262 29.475286,-2.097058 40.385171,-5.067866 6.05186,-1.647948 10.93458,-3.581625 14.89267,-5.897865 l 0.33721,-0.197334 -0.007,6.32508 c -0.007,5.935189 -0.01,6.339489 -0.0507,6.558839 -0.18205,0.973342 -0.54896,1.810948 -1.17953,2.692732 -0.57408,0.802779 -1.46334,1.697686 -2.45091,2.466453 -1.93564,1.506792 -4.55627,2.917893 -7.83298,4.217736 -6.71973,2.665666 -15.831948,4.736471 -26.231911,5.961358 -5.651616,0.665637 -12.121876,1.099318 -17.668654,1.184275 -0.481145,0.0074 -1.093818,0.0198 -1.361497,0.02763 l -0.486689,0.01423 z"
       id="path569" />
  </g>
</svg>
